
<svg width="46" height="46" viewBox="0 0 46 46" fill="none" xmlns="http://www.w3.org/2000/svg">
  <rect width="46" height="46" rx="10" fill="#F9F8F8"/>
  <path d="M33 19.627V17.8487C33.0001 17.6159 32.9365 17.3868 32.8151 17.1832C32.6938 16.9795 32.5187 16.8078 32.3063 16.6841L23.3063 11.3654C23.0939 11.2421 22.8528 11.1777 22.6063 11.1777C22.3598 11.1777 22.1187 11.2421 21.9063 11.3654L12.9063 16.6841C12.694 16.8078 12.5188 16.9795 12.3975 17.1832C12.2761 17.3868 12.2125 17.6159 12.2125 17.8487V28.1513C12.2125 28.3841 12.2761 28.6132 12.3975 28.8168C12.5188 29.0205 12.694 29.1922 12.9063 29.3159L21.9063 34.6346C22.1187 34.7579 22.3598 34.8223 22.6063 34.8223C22.8528 34.8223 23.0939 34.7579 23.3063 34.6346L32.3063 29.3159C32.5187 29.1922 32.6938 29.0205 32.8151 28.8168C32.9365 28.6132 33.0001 28.3841 33 28.1513V24.5573" stroke="#274C5B" stroke-width="2" stroke-linecap="round" stroke-linejoin="round"/>
  <path d="M12.3975 17.1832L22.6063 23.1305L32.8151 17.1832" stroke="#274C5B" stroke-width="2" stroke-linecap="round" stroke-linejoin="round"/>
  <path d="M22.6063 23.1304V34.8223" stroke="#274C5B" stroke-width="2" stroke-linecap="round" stroke-linejoin="round"/>
  <path d="M28.7001 22.0001V26.4151L34.3001 26.0001" stroke="#274C5B" stroke-width="2" stroke-linecap="round" stroke-linejoin="round"/>
  <path d="M36.3 20.9999C36.0082 20.9999 35.7283 20.886 35.5208 20.6834C35.3133 20.4808 35.1964 20.2068 35.1964 19.9213C35.1964 19.6358 35.3133 19.3618 35.5208 19.1592C35.7283 18.9566 36.0082 18.8427 36.3 18.8427C36.5918 18.8427 36.8717 18.9566 37.0792 19.1592C37.2867 19.3618 37.4036 19.6358 37.4036 19.9213C37.4036 20.2068 37.2867 20.4808 37.0792 20.6834C36.8717 20.886 36.5918 20.9999 36.3 20.9999Z" fill="#274C5B"/>
  <path d="M29.3 29.6C29.0082 29.6 28.7283 29.4861 28.5208 29.2834C28.3133 29.0808 28.1964 28.8068 28.1964 28.5213C28.1964 28.2358 28.3133 27.9618 28.5208 27.7592C28.7283 27.5566 29.0082 27.4427 29.3 27.4427C29.5918 27.4427 29.8717 27.5566 30.0792 27.7592C30.2867 27.9618 30.4036 28.2358 30.4036 28.5213C30.4036 28.8068 30.2867 29.0808 30.0792 29.2834C29.8717 29.4861 29.5918 29.6 29.3 29.6Z" fill="#274C5B"/>
  <path d="M34.5 30.2C34.2082 30.2 33.9283 30.0861 33.7208 29.8834C33.5133 29.6808 33.3964 29.4068 33.3964 29.1213C33.3964 28.8358 33.5133 28.5618 33.7208 28.3592C33.9283 28.1566 34.2082 28.0427 34.5 28.0427C34.7918 28.0427 35.0717 28.1566 35.2792 28.3592C35.4867 28.5618 35.6036 28.8358 35.6036 29.1213C35.6036 29.4068 35.4867 29.6808 35.2792 29.8834C35.0717 30.0861 34.7918 30.2 34.5 30.2Z" fill="#274C5B"/>
  <path d="M31.5 24.2C31.2082 24.2 30.9283 24.0861 30.7208 23.8834C30.5133 23.6808 30.3964 23.4068 30.3964 23.1213C30.3964 22.8358 30.5133 22.5618 30.7208 22.3592C30.9283 22.1566 31.2082 22.0427 31.5 22.0427C31.7918 22.0427 32.0717 22.1566 32.2792 22.3592C32.4867 22.5618 32.6036 22.8358 32.6036 23.1213C32.6036 23.4068 32.4867 23.6808 32.2792 23.8834C32.0717 24.0861 31.7918 24.2 31.5 24.2Z" fill="#274C5B"/>
</svg>
