
<svg width="75" height="50" viewBox="0 0 75 50" fill="none" xmlns="http://www.w3.org/2000/svg">
  <path d="M37.5 11.5C37.5 17.9 32.9 23 27.5 23C22.1 23 17.5 17.9 17.5 11.5C17.5 5.1 22.1 0 27.5 0C32.9 0 37.5 5.1 37.5 11.5Z" fill="#7EB693"/>
  <path d="M57.5 23.5C57.5 29.9 52.9 35 47.5 35C42.1 35 37.5 29.9 37.5 23.5C37.5 17.1 42.1 12 47.5 12C52.9 12 57.5 17.1 57.5 23.5Z" fill="#7EB693"/>
  <path d="M37.5 35.5C37.5 41.9 32.9 47 27.5 47C22.1 47 17.5 41.9 17.5 35.5C17.5 29.1 22.1 24 27.5 24C32.9 24 37.5 29.1 37.5 35.5Z" fill="#7EB693"/>
  <path d="M57.5 47.5C57.5 53.9 52.9 59 47.5 59C42.1 59 37.5 53.9 37.5 47.5C37.5 41.1 42.1 36 47.5 36C52.9 36 57.5 41.1 57.5 47.5Z" fill="#7EB693"/>
  <path d="M17.5 23.5C17.5 29.9 12.9 35 7.5 35C2.1 35 -2.5 29.9 -2.5 23.5C-2.5 17.1 2.1 12 7.5 12C12.9 12 17.5 17.1 17.5 23.5Z" fill="#7EB693"/>
  <path d="M77.5 23.5C77.5 29.9 72.9 35 67.5 35C62.1 35 57.5 29.9 57.5 23.5C57.5 17.1 62.1 12 67.5 12C72.9 12 77.5 17.1 77.5 23.5Z" fill="#7EB693"/>
</svg>
