
<svg width="100" height="100" viewBox="0 0 100 100" fill="none" xmlns="http://www.w3.org/2000/svg">
  <path d="M80.0963 19.9037C58.5064 -1.68616 23.3297 -6.65757 5.97684 10.7055C-11.3747 28.0673 -6.40328 63.2427 15.1866 84.8326C36.7765 106.422 71.9519 111.394 89.3135 94.0309C106.675 76.6678 101.686 41.4935 80.0963 19.9037ZM28.9655 71.0537C17.5599 59.6481 13.902 38.5038 24.4275 27.9783C34.9518 17.454 56.0961 21.113 67.5018 32.5186C78.9074 43.9243 82.5653 65.0673 72.0398 75.5939C61.5144 86.1182 40.3712 82.4593 28.9655 71.0537Z" fill="#7EB693" fill-opacity="0.2"/>
  <path d="M76 24C54.4102 2.41015 19.2335 -2.56127 1.88068 14.8018C-15.4709 32.1636 -10.4994 67.339 11.0904 88.9289C32.6803 110.519 67.8558 115.49 85.2173 98.1272C102.576 80.7654 97.5899 45.5899 76 24ZM24.8693 75.1501C13.4637 63.7445 9.80575 42.6001 20.3313 32.0747C30.8556 21.5503 51.9999 25.2094 63.4055 36.6149C74.8112 48.0206 78.4691 69.1637 67.9436 79.6902C57.4182 90.2146 36.2749 86.5557 24.8693 75.1501Z" stroke="#7EB693" stroke-opacity="0.2" stroke-width="2" stroke-miterlimit="10" stroke-linecap="round" stroke-dasharray="5 5"/>
</svg>
